# xmcd
#
# Track frame offsets: 
#        150
#        21258
#        34372
#        50211
#        63156
#        75806
#        93275
#        109005
#        120927
#        134393
#        152628
#        165388
#
# Disc length: 2417 seconds
#
# Revision: 0
# Processed by: cddbd v1.5.2PL0 Copyright (c) Steve Scherf et al.
# Submitted via: ExactAudioCopy v1.0b3
#
DISCID=8b096f0c
DTITLE=Die Innsbrucker BÖHMISCHE - Weltreise
DYEAR=1900
DGENRE=Brass
TTITLE0=Weltreise (Marsch)
TTITLE1=Leonie (Walzer)
TTITLE2=Immer wieder Polka (Polka)
TTITLE3=Harry's time (Polka)
TTITLE4=Zwei braune Augen wie im Märchen (Walzer)
TTITLE5=Weintrauben Polka (Polka)
TTITLE6=Böhmische Polka Highlights (Potpourri mit Gesang)
TTITLE7=Am Kreuzersteg (Polka)
TTITLE8=Patrioten Marsch (Marsch)
TTITLE9=Traumtänzer Walzer (Walzer)
TTITLE10=Meransner Schützen Polka (Polka)
TTITLE11=Al dente (für Fiona- Polka)
EXTD=
EXTT0=
EXTT1=
EXTT2=
EXTT3=
EXTT4=
EXTT5=
EXTT6=
EXTT7=
EXTT8=
EXTT9=
EXTT10=
EXTT11=
PLAYORDER=
